<svg xmlns="http://www.w3.org/2000/svg" xmlns:xlink="http://www.w3.org/1999/xlink" width="40" height="40" viewBox="0 0 40 40">
    <defs>
        <path id="a" d="M28.236 22.08A9.998 9.998 0 0 1 19.105 28h-6.106C7.477 28 3 23.514 3 17.996V4h26.104v2.598c.08-.002.161-.003.242-.003 4.227 0 7.654 3.485 7.654 7.783 0 4.3-3.427 7.784-7.654 7.784-.377 0-.748-.028-1.11-.081zm.868-4.793c.08.007.16.01.242.01 1.585 0 2.87-1.307 2.87-2.919s-1.285-2.918-2.87-2.918a2.86 2.86 0 0 0-.242.01v5.817z"/>
        <rect id="b" width="32" height="5" rx="2.5"/>
    </defs>
    <g fill="none" fill-rule="evenodd">
        <g transform="translate(2 6)">
            <use fill="#DDD7CE" xlink:href="#a"/>
            <path stroke="#5C5450" d="M3.5 4.5h25.104v2.614l.516-.016c.075-.002.15-.003.226-.003 3.95 0 7.154 3.259 7.154 7.283 0 4.025-3.205 7.284-7.154 7.284-.35 0-.696-.025-1.037-.076l-.375-.055-.154.346a9.497 9.497 0 0 1-8.675 5.623h-6.106c-5.244 0-9.499-4.26-9.499-9.504V4.5zm25.562 13.285c.094.008.189.012.284.012 1.863 0 3.37-1.532 3.37-3.419 0-1.886-1.507-3.418-3.37-3.418-.095 0-.19.004-.284.012l-.458.039v6.736l.458.038z"/>
        </g>
        <g transform="translate(2 6)">
            <use fill="#7B809C" xlink:href="#b"/>
            <rect width="31" height="4" x=".5" y=".5" stroke="#5C5450" rx="2"/>
        </g>
    </g>
</svg>
